<svg xml:space="preserve" viewBox="209.17541229385307 60.480000000000004 101.70914542728636 150.72" version="1.1" xmlns:xlink="http://www.w3.org/1999/xlink" xmlns="http://www.w3.org/2000/svg" style="max-height: 500px" width="101.70914542728636" height="150.72">
<desc>Created with Fabric.js 3.6.6</desc>
<defs>
</defs>
<g transform="matrix(1 0 0 1 259.5 136)">
<path stroke-linecap="round" d="M 209 60 L 210 210 L 308 210 L 308 61 L 209 60" transform="translate(-258.5, -135)" style="stroke: rgb(0,0,0); stroke-width: 2; stroke-dasharray: none; stroke-linecap: butt; stroke-dashoffset: 0; stroke-linejoin: miter; stroke-miterlimit: 4; fill: rgb(86,142,255); fill-rule: nonzero; opacity: 1;"/>
</g>
<g transform="matrix(0.43 0 0 0.43 260.02 133.98)">
<path stroke-linecap="round" d="m 0 59.82677 l 27.527777 -8.654488 l -19.512508 -21.258898 l 28.167 6.268881 l -6.268881 -28.167 l 21.258898 19.512508 l 8.654488 -27.527777 l 8.654491 27.527777 l 21.258896 -19.512508 l -6.2688828 28.167 l 28.167 -6.268881 l -19.512512 21.258898 l 27.527779 8.654488 l -27.527779 8.654491 l 19.512512 21.258896 l -28.167 -6.2688828 l 6.2688828 28.167 l -21.258896 -19.512512 l -8.654491 27.527779 l -8.654488 -27.527779 l -21.258898 19.512512 l 6.268881 -28.167 l -28.167 6.2688828 l 19.512508 -21.258896 z" transform="translate(-59.83, -59.83)" style="stroke: rgb(0,0,0); stroke-width: 2; stroke-dasharray: none; stroke-linecap: butt; stroke-dashoffset: 0; stroke-linejoin: miter; stroke-miterlimit: 10; fill: rgb(255,255,255); fill-rule: evenodd; opacity: 1;"/>
</g>
</svg>