<?xml version="1.0" encoding="UTF-8"?>
<svg xmlns="http://www.w3.org/2000/svg" viewBox="0 0 651 1001">
  <defs>
    <style>
      .cls-1 {
        stroke-width: 0px;
      }

      .cls-1, .cls-2 {
        fill: #ed1f24;
      }

      .cls-3 {
        fill: #fff;
        stroke: #231f20;
        stroke-miterlimit: 10;
      }

      .cls-2 {
        font-family: MyriadPro-Regular, 'Myriad Pro';
        font-size: 500px;
      }
    </style>
  </defs>
  <g id="Layer_1" data-name="Layer 1">
    <rect class="cls-3" x=".5" y=".5" width="650" height="1000"/>
  </g>
  <g id="Layer_2" data-name="Layer 2">
    <text class="cls-2" transform="translate(69.01 469.36)"><tspan x="0" y="0">10</tspan></text>
    <g>
      <path class="cls-1" d="m325.43,677.25v272.89c31.91-64.71,70.05-102.8,99.02-125.64,33.5-26.41,70.59-44.91,87.99-89.16,3.45-8.78,6.12-30.49,7.21-58.09,2.11-53.27-44.75-97.18-99.53-95.92-53.02,1.22-96.78,44.38-94.69,95.92Z"/>
      <path class="cls-1" d="m325.56,677.25v272.89c-31.91-64.71-70.05-102.8-99.02-125.64-33.5-26.41-70.59-44.91-87.99-89.16-3.45-8.78-6.12-30.49-7.21-58.09-2.11-53.27,44.75-97.18,99.53-95.92,53.02,1.22,96.78,44.38,94.69,95.92Z"/>
    </g>
  </g>
</svg>