<?xml version="1.0" encoding="UTF-8"?>
<svg xmlns="http://www.w3.org/2000/svg" viewBox="0 0 651 1001">
  <defs>
    <style>
      .cls-1 {
        fill: #fff;
        stroke: #231f20;
        stroke-miterlimit: 10;
      }

      .cls-2 {
        stroke-width: 0px;
      }

      .cls-3 {
        font-family: MyriadPro-Regular, 'Myriad Pro';
        font-size: 500px;
      }
    </style>
  </defs>
  <g id="Layer_1" data-name="Layer 1">
    <rect class="cls-1" x=".5" y=".5" width="650" height="1000"/>
  </g>
  <g id="Layer_2" data-name="Layer 2">
    <text class="cls-3" transform="translate(197.25 469.36)"><tspan x="0" y="0">9</tspan></text>
    <g>
      <path class="cls-2" d="m325.5,536.02v412.9h-105.75c7.87-2.71,16.58-7.02,24.73-13.98,33.41-28.51,28.88-77.1,28.15-83.87-3.13,3.77-25.18,29.46-62.56,30.11-38.24.66-61.43-25.44-64.52-29.03-7.72-10.36-17.43-26.75-18.28-47.31-2.08-50.1,50.16-82.6,106.45-143.01,25.21-27.06,59-68.04,91.77-125.81Z"/>
      <path class="cls-2" d="m325.5,536.02v412.9h105.75c-7.87-2.71-16.58-7.02-24.73-13.98-33.41-28.51-28.88-77.1-28.15-83.87,3.13,3.77,25.18,29.46,62.56,30.11,38.24.66,61.43-25.44,64.52-29.03,7.72-10.36,17.43-26.75,18.28-47.31,2.08-50.1-50.16-82.6-106.45-143.01-25.21-27.06-59-68.04-91.77-125.81Z"/>
    </g>
  </g>
</svg>