<?xml version="1.0" encoding="UTF-8"?>
<svg xmlns="http://www.w3.org/2000/svg" viewBox="0 0 651 1001">
  <defs>
    <style>
      .cls-1 {
        fill: #fff;
        stroke: #231f20;
        stroke-miterlimit: 10;
      }

      .cls-2 {
        stroke-width: 0px;
      }

      .cls-3 {
        font-family: MyriadPro-Regular, 'Myriad Pro';
        font-size: 500px;
      }
    </style>
  </defs>
  <g id="Layer_1" data-name="Layer 1">
    <rect class="cls-1" x=".5" y=".5" width="650" height="1000"/>
  </g>
  <g id="Layer_2" data-name="Layer 2">
    <text class="cls-3" transform="translate(197.25 469.36)"><tspan x="0" y="0">9</tspan></text>
    <g>
      <path class="cls-2" d="m325.5,536.02v412.9h-105.75c7.87-2.71,16.58-7.02,24.73-13.98,33.41-28.51,28.88-77.1,28.15-83.87-41.65,30.99-95.41,29.72-127.07,1.08-21.76-19.68-34.72-53.78-25.81-86.02.43-1.57,11.14-38,46.24-53.76,43.62-19.59,85.97,10.23,95.7-4.3,10.58-15.81-41.75-47.81-36.56-95.7,4.19-38.61,43.02-62.18,45.16-63.44,23.34-13.72,46.11-13.49,55.22-12.9Z"/>
      <path class="cls-2" d="m325.5,536.02v412.9h105.75c-7.87-2.71-16.58-7.02-24.73-13.98-33.41-28.51-28.88-77.1-28.15-83.87,41.65,30.99,95.41,29.72,127.07,1.08,21.76-19.68,34.72-53.78,25.81-86.02-.43-1.57-11.14-38-46.24-53.76-43.62-19.59-85.97,10.23-95.7-4.3-10.58-15.81,41.75-47.81,36.56-95.7-4.19-38.61-43.02-62.18-45.16-63.44-23.34-13.72-46.11-13.49-55.22-12.9Z"/>
    </g>
  </g>
</svg>